<svg height="512pt" viewBox="-60 0 512 512" width="512pt" xmlns="http://www.w3.org/2000/svg"><path d="m292.160156 196.527344c-22.261718 0-40.371094-18.109375-40.371094-40.371094v-15.695312h-15.792968c-22.257813 0-40.367188-18.109376-40.367188-40.367188v-33.878906c0-10.324219 3.898438-19.75 10.296875-26.894532h-52.40625v104.265626c0 27.039062-21.996093 49.039062-49.039062 49.039062h-104.480469v304.074219c0 8.449219 6.851562 15.300781 15.300781 15.300781h306.664063c8.449218 0 15.300781-6.851562 15.300781-15.300781v-301.746094c-3.539063 1.015625-7.273437 1.574219-11.136719 1.574219zm0 0"/><path d="m123.300781 143.585938v-104.265626l-123.300781 123.085938h104.480469c10.394531 0 18.820312-8.425781 18.820312-18.820312zm0 0"/><path d="m382.289062 56.066406h-46.007812s-.019531-46.621094-.054688-46.964844c-.527343-5.113281-4.847656-9.101562-10.097656-9.101562h-33.96875c-5.253906 0-9.570312 3.988281-10.097656 9.101562-.035156.34375-.054688 46.964844-.054688 46.964844h-46.011718c-5.605469 0-10.148438 4.542969-10.148438 10.152344v33.875c0 5.605469 4.542969 10.148438 10.148438 10.148438h46.011718v45.914062c0 5.609375 4.546876 10.152344 10.152344 10.152344h33.96875c5.605469 0 10.152344-4.542969 10.152344-10.152344l.984375-45.914062h45.027344c5.605469 0 10.152343-4.542969 10.152343-10.148438v-33.875c-.003906-5.609375-4.546874-10.152344-10.15625-10.152344zm0 0"/></svg>