<svg height="512pt" viewBox="0 -2 512.00004 512" width="512pt" xmlns="http://www.w3.org/2000/svg"><path d="m181.949219 269.757812-166.15625 149.296876c-20.832031 20.027343-21.089844 53.089843-.566407 73.433593 10.15625 10.070313 23.457032 15.09375 36.753907 15.09375 13.558593 0 27.117187-5.230469 37.316406-15.660156l150.523437-164.640625c-11.390624-7.34375-22.019531-15.878906-31.792968-25.566406-9.898438-9.8125-18.601563-20.5-26.078125-31.957032zm0 0"/><path d="m463.46875 48.109375c-32.347656-32.066406-74.761719-48.109375-117.160156-48.109375-42.410156 0-84.804688 16.03125-117.160156 48.109375-64.707032 64.148437-64.707032 168.152344 0 232.300781 32.351562 32.074219 74.757812 48.113282 117.160156 48.113282 42.40625 0 84.808594-16.039063 117.160156-48.113282 64.707031-64.148437 64.707031-168.152344 0-232.300781zm-48.242188 184.472656c-19.03125 18.867188-43.972656 28.300781-68.917968 28.300781-24.941406 0-49.882813-9.433593-68.914063-28.300781-38.0625-37.734375-38.0625-98.910156 0-136.644531 19.027344-18.863281 43.976563-28.296875 68.914063-28.300781 24.949218 0 49.886718 9.433593 68.917968 28.300781 38.0625 37.734375 38.0625 98.910156 0 136.644531zm0 0"/></svg>